<svg xmlns="http://www.w3.org/2000/svg" xmlns:xlink="http://www.w3.org/1999/xlink" width="2000" zoomAndPan="magnify" viewBox="0 0 1500 1499.999933" height="2000" preserveAspectRatio="xMidYMid meet" version="1.0"><defs><clipPath id="02e409736d"><path d="M 150 150 L 1350 150 L 1350 1350 L 150 1350 Z M 150 150 " clip-rule="nonzero"/></clipPath><clipPath id="3c442d622a"><path d="M 750 150 C 418.628906 150 150 418.628906 150 750 C 150 1081.371094 418.628906 1350 750 1350 C 1081.371094 1350 1350 1081.371094 1350 750 C 1350 418.628906 1081.371094 150 750 150 Z M 750 150 " clip-rule="nonzero"/></clipPath><clipPath id="746bd59595"><path d="M 0 0 L 1200 0 L 1200 1200 L 0 1200 Z M 0 0 " clip-rule="nonzero"/></clipPath><clipPath id="1ebacb9e87"><path d="M 600 0 C 268.628906 0 0 268.628906 0 600 C 0 931.371094 268.628906 1200 600 1200 C 931.371094 1200 1200 931.371094 1200 600 C 1200 268.628906 931.371094 0 600 0 Z M 600 0 " clip-rule="nonzero"/></clipPath><clipPath id="7bf8fa5b72"><rect x="0" width="1200" y="0" height="1200"/></clipPath><clipPath id="60ae48b164"><path d="M 311.945312 273.675781 L 773.304688 273.675781 L 773.304688 735.035156 L 311.945312 735.035156 Z M 311.945312 273.675781 " clip-rule="nonzero"/></clipPath><clipPath id="8e7b7380e9"><path d="M 542.625 273.675781 C 415.222656 273.675781 311.945312 376.953125 311.945312 504.355469 C 311.945312 631.753906 415.222656 735.035156 542.625 735.035156 C 670.023438 735.035156 773.304688 631.753906 773.304688 504.355469 C 773.304688 376.953125 670.023438 273.675781 542.625 273.675781 Z M 542.625 273.675781 " clip-rule="nonzero"/></clipPath><clipPath id="eb1ca05e44"><path d="M 0.945312 0.675781 L 462.304688 0.675781 L 462.304688 462.035156 L 0.945312 462.035156 Z M 0.945312 0.675781 " clip-rule="nonzero"/></clipPath><clipPath id="2211dbe928"><path d="M 231.625 0.675781 C 104.222656 0.675781 0.945312 103.953125 0.945312 231.355469 C 0.945312 358.753906 104.222656 462.035156 231.625 462.035156 C 359.023438 462.035156 462.304688 358.753906 462.304688 231.355469 C 462.304688 103.953125 359.023438 0.675781 231.625 0.675781 Z M 231.625 0.675781 " clip-rule="nonzero"/></clipPath><clipPath id="d019d64db1"><rect x="0" width="463" y="0" height="463"/></clipPath><clipPath id="afc63f63e6"><path d="M 575 725 L 939 725 L 939 1266 L 575 1266 Z M 575 725 " clip-rule="nonzero"/></clipPath><clipPath id="5a291c3ed5"><path d="M 767.230469 689.117188 L 975.46875 1211.433594 L 747.292969 1302.402344 L 539.054688 780.089844 Z M 767.230469 689.117188 " clip-rule="nonzero"/></clipPath><clipPath id="2fd77978f5"><path d="M 929.945312 1097.25 C 955.066406 1160.257812 924.351562 1231.703125 861.34375 1256.824219 C 798.332031 1281.945312 726.890625 1251.230469 701.769531 1188.222656 L 584.539062 894.179688 C 559.417969 831.167969 590.132812 759.726562 653.140625 734.605469 C 716.152344 709.484375 787.59375 740.199219 812.714844 803.207031 Z M 929.945312 1097.25 " clip-rule="nonzero"/></clipPath><clipPath id="ede3ecfda0"><path d="M 0 0 L 364 0 L 364 541 L 0 541 Z M 0 0 " clip-rule="nonzero"/></clipPath><clipPath id="c4444ddce5"><path d="M 192.230469 -35.882812 L 400.46875 486.433594 L 172.292969 577.402344 L -35.945312 55.089844 Z M 192.230469 -35.882812 " clip-rule="nonzero"/></clipPath><clipPath id="e37f0f5e48"><path d="M 354.945312 372.25 C 380.066406 435.257812 349.351562 506.703125 286.34375 531.824219 C 223.332031 556.945312 151.890625 526.230469 126.769531 463.222656 L 9.539062 169.179688 C -15.582031 106.167969 15.132812 34.726562 78.140625 9.605469 C 141.152344 -15.515625 212.59375 15.199219 237.714844 78.207031 Z M 354.945312 372.25 " clip-rule="nonzero"/></clipPath><clipPath id="f987399de7"><rect x="0" width="364" y="0" height="541"/></clipPath><clipPath id="519a9fa058"><path d="M 899 612 L 1213 612 L 1213 916 L 899 916 Z M 899 612 " clip-rule="nonzero"/></clipPath><clipPath id="63ce165b0a"><path d="M 872.824219 848.792969 L 1151.695312 585.328125 L 1239.402344 678.164062 L 960.53125 941.628906 Z M 872.824219 848.792969 " clip-rule="nonzero"/></clipPath><clipPath id="3a42e690a0"><path d="M 1104.996094 629.445312 C 1130.628906 605.226562 1171.046875 606.375 1195.265625 632.011719 C 1219.488281 657.648438 1218.339844 698.0625 1192.703125 722.28125 L 1006.949219 897.773438 C 981.3125 921.996094 940.894531 920.847656 916.675781 895.210938 C 892.457031 869.574219 893.605469 829.15625 919.242188 804.9375 Z M 1104.996094 629.445312 " clip-rule="nonzero"/></clipPath><clipPath id="06e920e905"><path d="M 0 0 L 314 0 L 314 304 L 0 304 Z M 0 0 " clip-rule="nonzero"/></clipPath><clipPath id="9c71de5882"><path d="M -26.175781 236.792969 L 252.695312 -26.671875 L 340.402344 66.164062 L 61.53125 329.628906 Z M -26.175781 236.792969 " clip-rule="nonzero"/></clipPath><clipPath id="a56e7c2060"><path d="M 205.996094 17.445312 C 231.628906 -6.773438 272.046875 -5.625 296.265625 20.011719 C 320.488281 45.648438 319.339844 86.0625 293.703125 110.28125 L 107.949219 285.773438 C 82.3125 309.996094 41.894531 308.847656 17.675781 283.210938 C -6.542969 257.574219 -5.394531 217.15625 20.242188 192.9375 Z M 205.996094 17.445312 " clip-rule="nonzero"/></clipPath><clipPath id="c644a877c1"><rect x="0" width="314" y="0" height="304"/></clipPath><clipPath id="588e8045c3"><path d="M 896 539 L 1086 539 L 1086 916 L 896 916 Z M 896 539 " clip-rule="nonzero"/></clipPath><clipPath id="067b15fc5c"><path d="M 883.375 898.3125 L 975.460938 525.882812 L 1099.441406 556.535156 L 1007.359375 928.964844 Z M 883.375 898.3125 " clip-rule="nonzero"/></clipPath><clipPath id="e327e2907b"><path d="M 960.039062 588.25 C 968.503906 554.011719 1003.121094 533.121094 1037.359375 541.585938 C 1071.59375 550.050781 1092.488281 584.667969 1084.023438 618.902344 L 1022.683594 866.976562 C 1014.21875 901.210938 979.605469 922.105469 945.367188 913.640625 C 911.128906 905.175781 890.238281 870.558594 898.703125 836.320312 Z M 960.039062 588.25 " clip-rule="nonzero"/></clipPath><clipPath id="c65151ec0b"><path d="M 0 0 L 190 0 L 190 377 L 0 377 Z M 0 0 " clip-rule="nonzero"/></clipPath><clipPath id="b869cada22"><path d="M -12.625 359.3125 L 79.460938 -13.117188 L 203.441406 17.535156 L 111.359375 389.964844 Z M -12.625 359.3125 " clip-rule="nonzero"/></clipPath><clipPath id="6f4aacb014"><path d="M 64.039062 49.25 C 72.503906 15.011719 107.121094 -5.878906 141.359375 2.585938 C 175.59375 11.050781 196.488281 45.667969 188.023438 79.902344 L 126.683594 327.976562 C 118.21875 362.210938 83.605469 383.105469 49.367188 374.640625 C 15.128906 366.175781 -5.761719 331.558594 2.703125 297.320312 Z M 64.039062 49.25 " clip-rule="nonzero"/></clipPath><clipPath id="84069c5001"><rect x="0" width="190" y="0" height="377"/></clipPath><clipPath id="f9aed3afad"><path d="M 1041 614 L 1227 614 L 1227 992 L 1041 992 Z M 1041 614 " clip-rule="nonzero"/></clipPath><clipPath id="8e68d8a38d"><path d="M 1029.273438 975.699219 L 1114.695312 601.6875 L 1239.207031 630.125 L 1153.78125 1004.136719 Z M 1029.273438 975.699219 " clip-rule="nonzero"/></clipPath><clipPath id="08fcb74bfa"><path d="M 1100.390625 664.320312 C 1108.242188 629.9375 1142.480469 608.429688 1176.863281 616.28125 C 1211.246094 624.136719 1232.753906 658.375 1224.902344 692.757812 L 1168 941.882812 C 1160.148438 976.265625 1125.910156 997.773438 1091.527344 989.917969 C 1057.144531 982.066406 1035.640625 947.828125 1043.492188 913.445312 Z M 1100.390625 664.320312 " clip-rule="nonzero"/></clipPath><clipPath id="7b62d8eaeb"><path d="M 0 0 L 186 0 L 186 378 L 0 378 Z M 0 0 " clip-rule="nonzero"/></clipPath><clipPath id="ced193f174"><path d="M -11.726562 361.699219 L 73.695312 -12.3125 L 198.207031 16.125 L 112.78125 390.136719 Z M -11.726562 361.699219 " clip-rule="nonzero"/></clipPath><clipPath id="1432d67c7c"><path d="M 59.390625 50.320312 C 67.242188 15.9375 101.480469 -5.570312 135.863281 2.28125 C 170.246094 10.136719 191.753906 44.375 183.902344 78.757812 L 127 327.882812 C 119.148438 362.265625 84.910156 383.773438 50.527344 375.917969 C 16.144531 368.066406 -5.359375 333.828125 2.492188 299.445312 Z M 59.390625 50.320312 " clip-rule="nonzero"/></clipPath><clipPath id="7f339bd627"><rect x="0" width="186" y="0" height="378"/></clipPath><clipPath id="5ee661070d"><path d="M 500 1039 L 864 1039 L 864 1264 L 500 1264 Z M 500 1039 " clip-rule="nonzero"/></clipPath><clipPath id="b7413aa87a"><path d="M 529.914062 1019.792969 L 883.398438 1167.960938 L 834.953125 1283.53125 L 481.46875 1135.363281 Z M 529.914062 1019.792969 " clip-rule="nonzero"/></clipPath><clipPath id="a0c2221905"><path d="M 824.480469 1143.265625 C 857.007812 1156.898438 872.53125 1193.824219 859.152344 1225.738281 C 845.777344 1257.652344 808.566406 1272.46875 776.039062 1258.835938 L 540.363281 1160.046875 C 507.835938 1146.414062 492.316406 1109.492188 505.691406 1077.578125 C 519.070312 1045.664062 556.28125 1030.84375 588.808594 1044.476562 Z M 824.480469 1143.265625 " clip-rule="nonzero"/></clipPath><clipPath id="52f1ce55f9"><path d="M 0 0 L 364 0 L 364 225 L 0 225 Z M 0 0 " clip-rule="nonzero"/></clipPath><clipPath id="b6ef8838ee"><path d="M 29.914062 -19.207031 L 383.398438 128.960938 L 334.953125 244.53125 L -18.53125 96.363281 Z M 29.914062 -19.207031 " clip-rule="nonzero"/></clipPath><clipPath id="6abd5d183b"><path d="M 324.480469 104.265625 C 357.007812 117.898438 372.53125 154.824219 359.152344 186.738281 C 345.777344 218.652344 308.566406 233.46875 276.039062 219.835938 L 40.363281 121.046875 C 7.835938 107.414062 -7.683594 70.492188 5.691406 38.578125 C 19.070312 6.664062 56.28125 -8.15625 88.808594 5.476562 Z M 324.480469 104.265625 " clip-rule="nonzero"/></clipPath><clipPath id="0a3f400438"><rect x="0" width="364" y="0" height="225"/></clipPath></defs><g clip-path="url(#02e409736d)"><g clip-path="url(#3c442d622a)"><g transform="matrix(1, 0, 0, 1, 150, 150)"><g clip-path="url(#7bf8fa5b72)"><g clip-path="url(#746bd59595)"><g clip-path="url(#1ebacb9e87)"><rect x="-480" width="2160" fill="#fdfefe" height="2159.999904" y="-479.999985" fill-opacity="1"/></g></g></g></g></g></g><g clip-path="url(#60ae48b164)"><g clip-path="url(#8e7b7380e9)"><g transform="matrix(1, 0, 0, 1, 311, 273)"><g clip-path="url(#d019d64db1)"><g clip-path="url(#eb1ca05e44)"><g clip-path="url(#2211dbe928)"><path fill="#000000" d="M 0.945312 0.675781 L 462.304688 0.675781 L 462.304688 462.035156 L 0.945312 462.035156 Z M 0.945312 0.675781 " fill-opacity="1" fill-rule="nonzero"/></g></g></g></g></g></g><g clip-path="url(#afc63f63e6)"><g clip-path="url(#5a291c3ed5)"><g clip-path="url(#2fd77978f5)"><g transform="matrix(1, 0, 0, 1, 575, 725)"><g clip-path="url(#f987399de7)"><g clip-path="url(#ede3ecfda0)"><g clip-path="url(#c4444ddce5)"><g clip-path="url(#e37f0f5e48)"><path fill="#000000" d="M 192.230469 -35.882812 L 400.46875 486.433594 L 172.292969 577.402344 L -35.945312 55.089844 Z M 192.230469 -35.882812 " fill-opacity="1" fill-rule="nonzero"/></g></g></g></g></g></g></g></g><g clip-path="url(#519a9fa058)"><g clip-path="url(#63ce165b0a)"><g clip-path="url(#3a42e690a0)"><g transform="matrix(1, 0, 0, 1, 899, 612)"><g clip-path="url(#c644a877c1)"><g clip-path="url(#06e920e905)"><g clip-path="url(#9c71de5882)"><g clip-path="url(#a56e7c2060)"><path fill="#000000" d="M -26.175781 236.792969 L 252.332031 -26.332031 L 340.039062 66.503906 L 61.53125 329.628906 Z M -26.175781 236.792969 " fill-opacity="1" fill-rule="nonzero"/></g></g></g></g></g></g></g></g><g clip-path="url(#588e8045c3)"><g clip-path="url(#067b15fc5c)"><g clip-path="url(#e327e2907b)"><g transform="matrix(1, 0, 0, 1, 896, 539)"><g clip-path="url(#84069c5001)"><g clip-path="url(#c65151ec0b)"><g clip-path="url(#b869cada22)"><g clip-path="url(#6f4aacb014)"><path fill="#000000" d="M -12.625 359.3125 L 79.339844 -12.632812 L 203.320312 18.019531 L 111.359375 389.964844 Z M -12.625 359.3125 " fill-opacity="1" fill-rule="nonzero"/></g></g></g></g></g></g></g></g><g clip-path="url(#f9aed3afad)"><g clip-path="url(#8e68d8a38d)"><g clip-path="url(#08fcb74bfa)"><g transform="matrix(1, 0, 0, 1, 1041, 614)"><g clip-path="url(#7f339bd627)"><g clip-path="url(#7b62d8eaeb)"><g clip-path="url(#ced193f174)"><g clip-path="url(#1432d67c7c)"><path fill="#000000" d="M -11.726562 361.699219 L 73.585938 -11.828125 L 198.09375 16.609375 L 112.78125 390.136719 Z M -11.726562 361.699219 " fill-opacity="1" fill-rule="nonzero"/></g></g></g></g></g></g></g></g><g clip-path="url(#5ee661070d)"><g clip-path="url(#b7413aa87a)"><g clip-path="url(#a0c2221905)"><g transform="matrix(1, 0, 0, 1, 500, 1039)"><g clip-path="url(#0a3f400438)"><g clip-path="url(#52f1ce55f9)"><g clip-path="url(#b6ef8838ee)"><g clip-path="url(#6abd5d183b)"><path fill="#000000" d="M 29.914062 -19.207031 L 383.398438 128.960938 L 334.953125 244.53125 L -18.53125 96.363281 Z M 29.914062 -19.207031 " fill-opacity="1" fill-rule="nonzero"/></g></g></g></g></g></g></g></g></svg>