<svg xmlns="http://www.w3.org/2000/svg" xmlns:xlink="http://www.w3.org/1999/xlink" width="2000" zoomAndPan="magnify" viewBox="0 0 1500 1499.999933" height="2000" preserveAspectRatio="xMidYMid meet" version="1.0"><defs><clipPath id="6f2afbbb4c"><path d="M 200.425781 214.132812 L 1299.574219 214.132812 L 1299.574219 1313.28125 L 200.425781 1313.28125 Z M 200.425781 214.132812 " clip-rule="nonzero"/></clipPath><clipPath id="1b0d9399da"><path d="M 750 214.132812 C 446.476562 214.132812 200.425781 460.183594 200.425781 763.707031 C 200.425781 1067.230469 446.476562 1313.28125 750 1313.28125 C 1053.523438 1313.28125 1299.574219 1067.230469 1299.574219 763.707031 C 1299.574219 460.183594 1053.523438 214.132812 750 214.132812 Z M 750 214.132812 " clip-rule="nonzero"/></clipPath><clipPath id="3c1e5c0ead"><path d="M 0.425781 0.132812 L 1099.574219 0.132812 L 1099.574219 1099.28125 L 0.425781 1099.28125 Z M 0.425781 0.132812 " clip-rule="nonzero"/></clipPath><clipPath id="7298aba8e6"><path d="M 550 0.132812 C 246.476562 0.132812 0.425781 246.183594 0.425781 549.707031 C 0.425781 853.230469 246.476562 1099.28125 550 1099.28125 C 853.523438 1099.28125 1099.574219 853.230469 1099.574219 549.707031 C 1099.574219 246.183594 853.523438 0.132812 550 0.132812 Z M 550 0.132812 " clip-rule="nonzero"/></clipPath><clipPath id="d162411f15"><rect x="0" width="1100" y="0" height="1100"/></clipPath><clipPath id="b1071cc908"><path d="M 348.757812 327.414062 L 771.34375 327.414062 L 771.34375 750 L 348.757812 750 Z M 348.757812 327.414062 " clip-rule="nonzero"/></clipPath><clipPath id="489baa11fe"><path d="M 560.050781 327.414062 C 443.355469 327.414062 348.757812 422.011719 348.757812 538.707031 C 348.757812 655.402344 443.355469 750 560.050781 750 C 676.746094 750 771.34375 655.402344 771.34375 538.707031 C 771.34375 422.011719 676.746094 327.414062 560.050781 327.414062 Z M 560.050781 327.414062 " clip-rule="nonzero"/></clipPath><clipPath id="7874ef4bc7"><path d="M 0.757812 0.414062 L 423.34375 0.414062 L 423.34375 423 L 0.757812 423 Z M 0.757812 0.414062 " clip-rule="nonzero"/></clipPath><clipPath id="0a0312a1e1"><path d="M 212.050781 0.414062 C 95.355469 0.414062 0.757812 95.011719 0.757812 211.707031 C 0.757812 328.402344 95.355469 423 212.050781 423 C 328.746094 423 423.34375 328.402344 423.34375 211.707031 C 423.34375 95.011719 328.746094 0.414062 212.050781 0.414062 Z M 212.050781 0.414062 " clip-rule="nonzero"/></clipPath><clipPath id="170e81ac0a"><rect x="0" width="424" y="0" height="423"/></clipPath><clipPath id="638fb761f0"><path d="M 590 741 L 923 741 L 923 1236 L 590 1236 Z M 590 741 " clip-rule="nonzero"/></clipPath><clipPath id="496ccd077d"><path d="M 765.789062 707.941406 L 956.527344 1186.359375 L 747.523438 1269.6875 L 556.785156 791.265625 Z M 765.789062 707.941406 " clip-rule="nonzero"/></clipPath><clipPath id="b18c669a5a"><path d="M 914.828125 1081.773438 C 937.839844 1139.488281 909.707031 1204.925781 851.992188 1227.9375 C 794.277344 1250.945312 728.835938 1222.8125 705.828125 1165.097656 L 598.449219 895.769531 C 575.441406 838.054688 603.574219 772.613281 661.289062 749.605469 C 719 726.59375 784.441406 754.726562 807.453125 812.441406 Z M 914.828125 1081.773438 " clip-rule="nonzero"/></clipPath><clipPath id="319c0053d7"><path d="M 0 0 L 333 0 L 333 495 L 0 495 Z M 0 0 " clip-rule="nonzero"/></clipPath><clipPath id="cf468cc36c"><path d="M 175.789062 -33.058594 L 366.527344 445.359375 L 157.523438 528.6875 L -33.214844 50.265625 Z M 175.789062 -33.058594 " clip-rule="nonzero"/></clipPath><clipPath id="ed9a523e0e"><path d="M 324.828125 340.773438 C 347.839844 398.488281 319.707031 463.925781 261.992188 486.9375 C 204.277344 509.945312 138.835938 481.8125 115.828125 424.097656 L 8.449219 154.769531 C -14.558594 97.054688 13.574219 31.613281 71.289062 8.605469 C 129 -14.40625 194.441406 13.726562 217.453125 71.441406 Z M 324.828125 340.773438 " clip-rule="nonzero"/></clipPath><clipPath id="ba703ec5bd"><rect x="0" width="333" y="0" height="495"/></clipPath><clipPath id="a84c484281"><path d="M 886 637 L 1174 637 L 1174 916 L 886 916 Z M 886 637 " clip-rule="nonzero"/></clipPath><clipPath id="0f82fb0f57"><path d="M 862.5 854.199219 L 1117.9375 612.875 L 1198.273438 697.910156 L 942.839844 939.234375 Z M 862.5 854.199219 " clip-rule="nonzero"/></clipPath><clipPath id="573f5bb68c"><path d="M 1075.160156 653.285156 C 1098.644531 631.101562 1135.664062 632.15625 1157.847656 655.636719 C 1180.03125 679.117188 1178.980469 716.136719 1155.5 738.320312 L 985.355469 899.066406 C 961.875 921.25 924.855469 920.199219 902.671875 896.714844 C 880.484375 873.234375 881.539062 836.214844 905.019531 814.03125 Z M 1075.160156 653.285156 " clip-rule="nonzero"/></clipPath><clipPath id="3a2a0214d4"><path d="M 0 0 L 288 0 L 288 279 L 0 279 Z M 0 0 " clip-rule="nonzero"/></clipPath><clipPath id="503ba557e6"><path d="M -23.5 217.199219 L 231.9375 -24.125 L 312.273438 60.910156 L 56.839844 302.234375 Z M -23.5 217.199219 " clip-rule="nonzero"/></clipPath><clipPath id="7b70330245"><path d="M 189.160156 16.285156 C 212.644531 -5.898438 249.664062 -4.84375 271.847656 18.636719 C 294.03125 42.117188 292.980469 79.136719 269.5 101.320312 L 99.355469 262.066406 C 75.875 284.25 38.855469 283.199219 16.671875 259.714844 C -5.515625 236.234375 -4.460938 199.214844 19.019531 177.03125 Z M 189.160156 16.285156 " clip-rule="nonzero"/></clipPath><clipPath id="e647b2b849"><rect x="0" width="288" y="0" height="279"/></clipPath><clipPath id="c7e2cef322"><path d="M 884 571 L 1058 571 L 1058 916 L 884 916 Z M 884 571 " clip-rule="nonzero"/></clipPath><clipPath id="ab2adb07c9"><path d="M 872.167969 899.558594 L 956.515625 558.425781 L 1070.078125 586.503906 L 985.730469 927.636719 Z M 872.167969 899.558594 " clip-rule="nonzero"/></clipPath><clipPath id="a1c614ada4"><path d="M 942.390625 615.550781 C 950.144531 584.191406 981.851562 565.054688 1013.210938 572.808594 C 1044.570312 580.5625 1063.707031 612.269531 1055.953125 643.628906 L 999.769531 870.855469 C 992.019531 902.214844 960.308594 921.351562 928.949219 913.597656 C 897.589844 905.84375 878.457031 874.136719 886.207031 842.777344 Z M 942.390625 615.550781 " clip-rule="nonzero"/></clipPath><clipPath id="d41ab924be"><path d="M 0 0 L 174 0 L 174 345 L 0 345 Z M 0 0 " clip-rule="nonzero"/></clipPath><clipPath id="e3ba5f2f45"><path d="M -11.832031 328.558594 L 72.515625 -12.574219 L 186.078125 15.503906 L 101.730469 356.636719 Z M -11.832031 328.558594 " clip-rule="nonzero"/></clipPath><clipPath id="f0c8c96b31"><path d="M 58.390625 44.550781 C 66.144531 13.191406 97.851562 -5.945312 129.210938 1.808594 C 160.570312 9.5625 179.707031 41.269531 171.953125 72.628906 L 115.769531 299.855469 C 108.019531 331.214844 76.308594 350.351562 44.949219 342.597656 C 13.589844 334.84375 -5.542969 303.136719 2.207031 271.777344 Z M 58.390625 44.550781 " clip-rule="nonzero"/></clipPath><clipPath id="afe90936f5"><rect x="0" width="174" y="0" height="345"/></clipPath><clipPath id="4250b2d727"><path d="M 1017 639 L 1187 639 L 1187 985 L 1017 985 Z M 1017 639 " clip-rule="nonzero"/></clipPath><clipPath id="5f47e51ec5"><path d="M 1005.804688 970.441406 L 1084.050781 627.859375 L 1198.09375 653.90625 L 1119.851562 996.488281 Z M 1005.804688 970.441406 " clip-rule="nonzero"/></clipPath><clipPath id="a4a98b3e7e"><path d="M 1070.945312 685.230469 C 1078.140625 653.734375 1109.5 634.039062 1140.992188 641.230469 C 1172.484375 648.421875 1192.183594 679.785156 1184.992188 711.277344 L 1132.875 939.464844 C 1125.683594 970.960938 1094.320312 990.660156 1062.828125 983.464844 C 1031.335938 976.273438 1011.636719 944.910156 1018.828125 913.417969 Z M 1070.945312 685.230469 " clip-rule="nonzero"/></clipPath><clipPath id="e911ef415f"><path d="M 0 0 L 170 0 L 170 346 L 0 346 Z M 0 0 " clip-rule="nonzero"/></clipPath><clipPath id="a51cdae3e9"><path d="M -11.195312 331.441406 L 67.050781 -11.140625 L 181.09375 14.90625 L 102.851562 357.488281 Z M -11.195312 331.441406 " clip-rule="nonzero"/></clipPath><clipPath id="9d94889616"><path d="M 53.945312 46.230469 C 61.140625 14.734375 92.5 -4.960938 123.992188 2.230469 C 155.484375 9.421875 175.183594 40.785156 167.992188 72.277344 L 115.875 300.464844 C 108.683594 331.960938 77.320312 351.660156 45.828125 344.464844 C 14.335938 337.273438 -5.363281 305.910156 1.828125 274.417969 Z M 53.945312 46.230469 " clip-rule="nonzero"/></clipPath><clipPath id="fd97b167c8"><rect x="0" width="170" y="0" height="346"/></clipPath><clipPath id="5a98acfaf1"><path d="M 521 1028 L 855 1028 L 855 1235 L 521 1235 Z M 521 1028 " clip-rule="nonzero"/></clipPath><clipPath id="9cb65d56a9"><path d="M 548.410156 1010.824219 L 872.1875 1146.542969 L 827.816406 1252.398438 L 504.039062 1116.683594 Z M 548.410156 1010.824219 " clip-rule="nonzero"/></clipPath><clipPath id="d6827aca2b"><path d="M 818.222656 1123.921875 C 848.015625 1136.410156 862.234375 1170.230469 849.980469 1199.460938 C 837.726562 1228.695312 803.640625 1242.265625 773.851562 1229.78125 L 557.980469 1139.292969 C 528.1875 1126.804688 513.96875 1092.984375 526.222656 1063.753906 C 538.476562 1034.523438 572.5625 1020.949219 602.351562 1033.4375 Z M 818.222656 1123.921875 " clip-rule="nonzero"/></clipPath><clipPath id="3bc46eb5e7"><path d="M 0 0 L 334 0 L 334 207 L 0 207 Z M 0 0 " clip-rule="nonzero"/></clipPath><clipPath id="5b740bc3c5"><path d="M 27.410156 -17.175781 L 351.1875 118.542969 L 306.816406 224.398438 L -16.960938 88.683594 Z M 27.410156 -17.175781 " clip-rule="nonzero"/></clipPath><clipPath id="c62c6ffa6d"><path d="M 297.222656 95.921875 C 327.015625 108.410156 341.234375 142.230469 328.980469 171.460938 C 316.726562 200.695312 282.640625 214.265625 252.851562 201.78125 L 36.980469 111.292969 C 7.1875 98.804688 -7.03125 64.984375 5.222656 35.753906 C 17.476562 6.523438 51.5625 -7.050781 81.351562 5.4375 Z M 297.222656 95.921875 " clip-rule="nonzero"/></clipPath><clipPath id="869a5c344f"><rect x="0" width="334" y="0" height="207"/></clipPath></defs><rect x="-150" width="1800" fill="#ffffff" y="-149.999993" height="1799.99992" fill-opacity="1"/><rect x="-150" width="1800" fill="#000000" y="-149.999993" height="1799.99992" fill-opacity="1"/><g clip-path="url(#6f2afbbb4c)"><g clip-path="url(#1b0d9399da)"><g transform="matrix(1, 0, 0, 1, 200, 214)"><g clip-path="url(#d162411f15)"><g clip-path="url(#3c1e5c0ead)"><g clip-path="url(#7298aba8e6)"><path fill="#fdfefe" d="M 0.425781 0.132812 L 1099.574219 0.132812 L 1099.574219 1099.28125 L 0.425781 1099.28125 Z M 0.425781 0.132812 " fill-opacity="1" fill-rule="nonzero"/></g></g></g></g></g></g><g clip-path="url(#b1071cc908)"><g clip-path="url(#489baa11fe)"><g transform="matrix(1, 0, 0, 1, 348, 327)"><g clip-path="url(#170e81ac0a)"><g clip-path="url(#7874ef4bc7)"><g clip-path="url(#0a0312a1e1)"><path fill="#000000" d="M 0.757812 0.414062 L 423.34375 0.414062 L 423.34375 423 L 0.757812 423 Z M 0.757812 0.414062 " fill-opacity="1" fill-rule="nonzero"/></g></g></g></g></g></g><g clip-path="url(#638fb761f0)"><g clip-path="url(#496ccd077d)"><g clip-path="url(#b18c669a5a)"><g transform="matrix(1, 0, 0, 1, 590, 741)"><g clip-path="url(#ba703ec5bd)"><g clip-path="url(#319c0053d7)"><g clip-path="url(#cf468cc36c)"><g clip-path="url(#ed9a523e0e)"><path fill="#000000" d="M 175.789062 -33.058594 L 366.527344 445.359375 L 157.523438 528.6875 L -33.214844 50.265625 Z M 175.789062 -33.058594 " fill-opacity="1" fill-rule="nonzero"/></g></g></g></g></g></g></g></g><g clip-path="url(#a84c484281)"><g clip-path="url(#0f82fb0f57)"><g clip-path="url(#573f5bb68c)"><g transform="matrix(1, 0, 0, 1, 886, 637)"><g clip-path="url(#e647b2b849)"><g clip-path="url(#3a2a0214d4)"><g clip-path="url(#503ba557e6)"><g clip-path="url(#7b70330245)"><path fill="#000000" d="M -23.5 217.199219 L 231.605469 -23.8125 L 311.941406 61.222656 L 56.839844 302.234375 Z M -23.5 217.199219 " fill-opacity="1" fill-rule="nonzero"/></g></g></g></g></g></g></g></g><g clip-path="url(#c7e2cef322)"><g clip-path="url(#ab2adb07c9)"><g clip-path="url(#a1c614ada4)"><g transform="matrix(1, 0, 0, 1, 884, 571)"><g clip-path="url(#afe90936f5)"><g clip-path="url(#d41ab924be)"><g clip-path="url(#e3ba5f2f45)"><g clip-path="url(#f0c8c96b31)"><path fill="#000000" d="M -11.832031 328.558594 L 72.40625 -12.128906 L 185.96875 15.949219 L 101.730469 356.636719 Z M -11.832031 328.558594 " fill-opacity="1" fill-rule="nonzero"/></g></g></g></g></g></g></g></g><g clip-path="url(#4250b2d727)"><g clip-path="url(#5f47e51ec5)"><g clip-path="url(#a4a98b3e7e)"><g transform="matrix(1, 0, 0, 1, 1017, 639)"><g clip-path="url(#fd97b167c8)"><g clip-path="url(#e911ef415f)"><g clip-path="url(#a51cdae3e9)"><g clip-path="url(#9d94889616)"><path fill="#000000" d="M -11.195312 331.441406 L 66.949219 -10.695312 L 180.992188 15.351562 L 102.851562 357.488281 Z M -11.195312 331.441406 " fill-opacity="1" fill-rule="nonzero"/></g></g></g></g></g></g></g></g><g clip-path="url(#5a98acfaf1)"><g clip-path="url(#9cb65d56a9)"><g clip-path="url(#d6827aca2b)"><g transform="matrix(1, 0, 0, 1, 521, 1028)"><g clip-path="url(#869a5c344f)"><g clip-path="url(#3bc46eb5e7)"><g clip-path="url(#5b740bc3c5)"><g clip-path="url(#c62c6ffa6d)"><path fill="#000000" d="M 27.410156 -17.175781 L 351.1875 118.542969 L 306.816406 224.398438 L -16.960938 88.683594 Z M 27.410156 -17.175781 " fill-opacity="1" fill-rule="nonzero"/></g></g></g></g></g></g></g></g></svg>