<svg xmlns="http://www.w3.org/2000/svg" xmlns:xlink="http://www.w3.org/1999/xlink" width="2000" zoomAndPan="magnify" viewBox="0 0 1500 1499.999933" height="2000" preserveAspectRatio="xMidYMid meet" version="1.0"><defs><clipPath id="84976d5a98"><path d="M 340.574219 70.613281 L 999.5625 70.613281 L 999.5625 729.605469 L 340.574219 729.605469 Z M 340.574219 70.613281 " clip-rule="nonzero"/></clipPath><clipPath id="6ce39a2530"><path d="M 670.070312 70.613281 C 488.09375 70.613281 340.574219 218.132812 340.574219 400.109375 C 340.574219 582.082031 488.09375 729.605469 670.070312 729.605469 C 852.042969 729.605469 999.5625 582.082031 999.5625 400.109375 C 999.5625 218.132812 852.042969 70.613281 670.070312 70.613281 Z M 670.070312 70.613281 " clip-rule="nonzero"/></clipPath><clipPath id="f8669d3243"><path d="M 0.574219 0.613281 L 659.5625 0.613281 L 659.5625 659.605469 L 0.574219 659.605469 Z M 0.574219 0.613281 " clip-rule="nonzero"/></clipPath><clipPath id="8627d59892"><path d="M 330.070312 0.613281 C 148.09375 0.613281 0.574219 148.132812 0.574219 330.109375 C 0.574219 512.082031 148.09375 659.605469 330.070312 659.605469 C 512.042969 659.605469 659.5625 512.082031 659.5625 330.109375 C 659.5625 148.132812 512.042969 0.613281 330.070312 0.613281 Z M 330.070312 0.613281 " clip-rule="nonzero"/></clipPath><clipPath id="2121547a19"><rect x="0" width="660" y="0" height="660"/></clipPath><clipPath id="562fdecbe9"><path d="M 153 669 L 594 669 L 594 1148 L 153 1148 Z M 153 669 " clip-rule="nonzero"/></clipPath><clipPath id="4145df8647"><path d="M 107.25 1048.542969 L 467.765625 622.5 L 639.523438 767.839844 L 279.007812 1193.882812 Z M 107.25 1048.542969 " clip-rule="nonzero"/></clipPath><clipPath id="a0238661d2"><path d="M 394.632812 708.921875 C 434.769531 661.492188 505.753906 655.578125 553.183594 695.714844 C 600.613281 735.847656 606.527344 806.832031 566.390625 854.261719 L 351.679688 1108.003906 C 311.542969 1155.433594 240.558594 1161.347656 193.128906 1121.210938 C 145.699219 1081.078125 139.785156 1010.089844 179.921875 962.660156 Z M 394.632812 708.921875 " clip-rule="nonzero"/></clipPath><clipPath id="58fac28ea9"><path d="M 0 0 L 441 0 L 441 479 L 0 479 Z M 0 0 " clip-rule="nonzero"/></clipPath><clipPath id="114341ecba"><path d="M -45.75 379.542969 L 314.765625 -46.5 L 486.523438 98.839844 L 126.007812 524.882812 Z M -45.75 379.542969 " clip-rule="nonzero"/></clipPath><clipPath id="7e9891304d"><path d="M 241.632812 39.921875 C 281.769531 -7.507812 352.753906 -13.421875 400.183594 26.714844 C 447.613281 66.847656 453.527344 137.832031 413.390625 185.261719 L 198.679688 439.003906 C 158.542969 486.433594 87.558594 492.347656 40.128906 452.210938 C -7.300781 412.078125 -13.214844 341.089844 26.921875 293.660156 Z M 241.632812 39.921875 " clip-rule="nonzero"/></clipPath><clipPath id="3f29bc88bf"><rect x="0" width="441" y="0" height="479"/></clipPath><clipPath id="d8267f7188"><path d="M 475.894531 647 L 855.042969 647 L 855.042969 1500 L 475.894531 1500 Z M 475.894531 647 " clip-rule="nonzero"/></clipPath><clipPath id="b6708d8b93"><path d="M 475.894531 759.515625 C 475.894531 697.382812 560.769531 647.015625 665.46875 647.015625 C 770.167969 647.015625 855.042969 697.382812 855.042969 759.515625 L 855.042969 1474.320312 C 855.042969 1536.453125 770.167969 1586.820312 665.46875 1586.820312 C 560.769531 1586.820312 475.894531 1536.453125 475.894531 1474.320312 Z M 475.894531 759.515625 " clip-rule="nonzero"/></clipPath><clipPath id="b3d8cf7193"><path d="M 0.894531 0 L 380.042969 0 L 380.042969 853 L 0.894531 853 Z M 0.894531 0 " clip-rule="nonzero"/></clipPath><clipPath id="741c9b06cd"><path d="M 0.894531 112.515625 C 0.894531 50.382812 85.769531 0.015625 190.46875 0.015625 C 295.167969 0.015625 380.042969 50.382812 380.042969 112.515625 L 380.042969 827.320312 C 380.042969 889.453125 295.167969 939.820312 190.46875 939.820312 C 85.769531 939.820312 0.894531 889.453125 0.894531 827.320312 Z M 0.894531 112.515625 " clip-rule="nonzero"/></clipPath><clipPath id="6b05b42b77"><rect x="0" width="381" y="0" height="853"/></clipPath><clipPath id="d237351912"><path d="M 708 709 L 1222 709 L 1222 1137 L 708 1137 Z M 708 709 " clip-rule="nonzero"/></clipPath><clipPath id="cd3455206b"><path d="M 661.003906 935.363281 L 1128.671875 665.1875 L 1270.117188 910.019531 L 802.445312 1180.199219 Z M 661.003906 935.363281 " clip-rule="nonzero"/></clipPath><clipPath id="ed7b7ddfbc"><path d="M 1030.832031 721.710938 C 1084.632812 690.628906 1159.90625 720.242188 1198.964844 787.851562 C 1238.023438 855.460938 1226.074219 935.464844 1172.273438 966.542969 L 899.859375 1123.921875 C 846.058594 1155.003906 770.785156 1125.390625 731.726562 1057.78125 C 692.667969 990.171875 704.617188 910.167969 758.414062 879.089844 Z M 1030.832031 721.710938 " clip-rule="nonzero"/></clipPath><clipPath id="aa3ade9758"><path d="M 0 0 L 514 0 L 514 428 L 0 428 Z M 0 0 " clip-rule="nonzero"/></clipPath><clipPath id="23c4773d0b"><path d="M -46.996094 226.363281 L 420.671875 -43.8125 L 562.117188 201.019531 L 94.445312 471.199219 Z M -46.996094 226.363281 " clip-rule="nonzero"/></clipPath><clipPath id="10f1ea2837"><path d="M 322.832031 12.710938 C 376.632812 -18.371094 451.90625 11.242188 490.964844 78.851562 C 530.023438 146.460938 518.074219 226.464844 464.273438 257.542969 L 191.859375 414.921875 C 138.058594 446.003906 62.785156 416.390625 23.726562 348.78125 C -15.332031 281.171875 -3.382812 201.167969 50.414062 170.089844 Z M 322.832031 12.710938 " clip-rule="nonzero"/></clipPath><clipPath id="496a29f48d"><rect x="0" width="514" y="0" height="428"/></clipPath><clipPath id="eab6571ecf"><path d="M 744 706 L 1258 706 L 1258 1098 L 744 1098 Z M 744 706 " clip-rule="nonzero"/></clipPath><clipPath id="894643b26e"><path d="M 703.273438 944.261719 L 1186.53125 665.078125 L 1299.082031 859.902344 L 815.824219 1139.089844 Z M 703.273438 944.261719 " clip-rule="nonzero"/></clipPath><clipPath id="5c87c1a3e9"><path d="M 1088.503906 721.710938 C 1142.300781 690.628906 1211.109375 709.046875 1242.191406 762.847656 C 1273.273438 816.648438 1254.855469 885.457031 1201.054688 916.535156 L 913.238281 1082.8125 C 859.4375 1113.890625 790.628906 1095.476562 759.550781 1041.675781 C 728.46875 987.875 746.886719 919.066406 800.6875 887.988281 Z M 1088.503906 721.710938 " clip-rule="nonzero"/></clipPath><clipPath id="146d229ca6"><path d="M 0 0 L 514 0 L 514 392 L 0 392 Z M 0 0 " clip-rule="nonzero"/></clipPath><clipPath id="6535f2e8a1"><path d="M -40.726562 238.261719 L 442.53125 -40.921875 L 555.082031 153.902344 L 71.824219 433.089844 Z M -40.726562 238.261719 " clip-rule="nonzero"/></clipPath><clipPath id="35d690cdb5"><path d="M 344.503906 15.710938 C 398.300781 -15.371094 467.109375 3.046875 498.191406 56.847656 C 529.273438 110.648438 510.855469 179.457031 457.054688 210.535156 L 169.238281 376.8125 C 115.4375 407.890625 46.628906 389.476562 15.550781 335.675781 C -15.53125 281.875 2.886719 213.066406 56.6875 181.988281 Z M 344.503906 15.710938 " clip-rule="nonzero"/></clipPath><clipPath id="f48fa2e3f3"><rect x="0" width="514" y="0" height="392"/></clipPath><clipPath id="3c822acbfe"><path d="M 896.792969 427.007812 L 1282 427.007812 L 1282 795.21875 L 896.792969 795.21875 Z M 896.792969 427.007812 " clip-rule="nonzero"/></clipPath><clipPath id="2d7affcba8"><path d="M 1281.367188 427.007812 L 1281.367188 795.21875 L 896.792969 795.21875 Z M 1281.367188 427.007812 " clip-rule="nonzero"/></clipPath><clipPath id="d1aa029c6d"><path d="M 0.792969 0.0078125 L 385 0.0078125 L 385 368.21875 L 0.792969 368.21875 Z M 0.792969 0.0078125 " clip-rule="nonzero"/></clipPath><clipPath id="6e798fdc82"><path d="M 385.367188 0.0078125 L 385.367188 368.21875 L 0.792969 368.21875 Z M 385.367188 0.0078125 " clip-rule="nonzero"/></clipPath><clipPath id="0ede33eda0"><rect x="0" width="386" y="0" height="369"/></clipPath><clipPath id="79ac1f8cdf"><path d="M 965.429688 400.097656 L 1350.898438 400.097656 L 1350.898438 768.308594 L 965.429688 768.308594 Z M 965.429688 400.097656 " clip-rule="nonzero"/></clipPath><clipPath id="c9b948c20d"><path d="M 1350.003906 400.097656 L 1350.003906 768.308594 L 965.429688 768.308594 Z M 1350.003906 400.097656 " clip-rule="nonzero"/></clipPath><clipPath id="623e422a16"><path d="M 0.429688 0.0976562 L 385 0.0976562 L 385 368.308594 L 0.429688 368.308594 Z M 0.429688 0.0976562 " clip-rule="nonzero"/></clipPath><clipPath id="5abea5d611"><path d="M 385.003906 0.0976562 L 385.003906 368.308594 L 0.429688 368.308594 Z M 385.003906 0.0976562 " clip-rule="nonzero"/></clipPath><clipPath id="fe84800762"><rect x="0" width="386" y="0" height="369"/></clipPath></defs><rect x="-150" width="1800" fill="#ffffff" y="-149.999993" height="1799.99992" fill-opacity="1"/><rect x="-150" width="1800" fill="#112e56" y="-149.999993" height="1799.99992" fill-opacity="1"/><g clip-path="url(#84976d5a98)"><g clip-path="url(#6ce39a2530)"><g transform="matrix(1, 0, 0, 1, 340, 70)"><g clip-path="url(#2121547a19)"><g clip-path="url(#f8669d3243)"><g clip-path="url(#8627d59892)"><path fill="#ffffff" d="M 0.574219 0.613281 L 659.5625 0.613281 L 659.5625 659.605469 L 0.574219 659.605469 Z M 0.574219 0.613281 " fill-opacity="1" fill-rule="nonzero"/></g></g></g></g></g></g><g clip-path="url(#562fdecbe9)"><g clip-path="url(#4145df8647)"><g clip-path="url(#a0238661d2)"><g transform="matrix(1, 0, 0, 1, 153, 669)"><g clip-path="url(#3f29bc88bf)"><g clip-path="url(#58fac28ea9)"><g clip-path="url(#114341ecba)"><g clip-path="url(#7e9891304d)"><path fill="#ffffff" d="M -45.75 379.542969 L 314.195312 -45.828125 L 485.953125 99.511719 L 126.007812 524.882812 Z M -45.75 379.542969 " fill-opacity="1" fill-rule="nonzero"/></g></g></g></g></g></g></g></g><g clip-path="url(#d8267f7188)"><g clip-path="url(#b6708d8b93)"><g transform="matrix(1, 0, 0, 1, 475, 647)"><g clip-path="url(#6b05b42b77)"><g clip-path="url(#b3d8cf7193)"><g clip-path="url(#741c9b06cd)"><path fill="#ffffff" d="M 0.894531 939.820312 L 0.894531 -0.648438 L 380.042969 -0.648438 L 380.042969 939.820312 Z M 0.894531 939.820312 " fill-opacity="1" fill-rule="nonzero"/></g></g></g></g></g></g><g clip-path="url(#d237351912)"><g clip-path="url(#cd3455206b)"><g clip-path="url(#ed7b7ddfbc)"><g transform="matrix(1, 0, 0, 1, 708, 709)"><g clip-path="url(#496a29f48d)"><g clip-path="url(#aa3ade9758)"><g clip-path="url(#23c4773d0b)"><g clip-path="url(#10f1ea2837)"><path fill="#112e56" d="M -46.996094 226.363281 L 420.671875 -43.8125 L 562.117188 201.019531 L 94.445312 471.199219 Z M -46.996094 226.363281 " fill-opacity="1" fill-rule="nonzero"/></g></g></g></g></g></g></g></g><g clip-path="url(#eab6571ecf)"><g clip-path="url(#894643b26e)"><g clip-path="url(#5c87c1a3e9)"><g transform="matrix(1, 0, 0, 1, 744, 706)"><g clip-path="url(#f48fa2e3f3)"><g clip-path="url(#146d229ca6)"><g clip-path="url(#6535f2e8a1)"><g clip-path="url(#35d690cdb5)"><path fill="#ffffff" d="M -40.726562 238.261719 L 441.769531 -40.480469 L 554.324219 154.34375 L 71.824219 433.089844 Z M -40.726562 238.261719 " fill-opacity="1" fill-rule="nonzero"/></g></g></g></g></g></g></g></g><g clip-path="url(#3c822acbfe)"><g clip-path="url(#2d7affcba8)"><g transform="matrix(1, 0, 0, 1, 896, 427)"><g clip-path="url(#0ede33eda0)"><g clip-path="url(#d1aa029c6d)"><g clip-path="url(#6e798fdc82)"><path fill="#112e56" d="M 0.792969 368.21875 L 0.792969 0.0078125 L 384.824219 0.0078125 L 384.824219 368.21875 Z M 0.792969 368.21875 " fill-opacity="1" fill-rule="nonzero"/></g></g></g></g></g></g><g clip-path="url(#79ac1f8cdf)"><g clip-path="url(#c9b948c20d)"><g transform="matrix(1, 0, 0, 1, 965, 400)"><g clip-path="url(#fe84800762)"><g clip-path="url(#623e422a16)"><g clip-path="url(#5abea5d611)"><path fill="#ffffff" d="M 0.429688 368.308594 L 0.429688 0.0976562 L 384.460938 0.0976562 L 384.460938 368.308594 Z M 0.429688 368.308594 " fill-opacity="1" fill-rule="nonzero"/></g></g></g></g></g></g></svg>